<?xml version="1.0" encoding="UTF-8"?>
<!DOCTYPE svg PUBLIC "-//W3C//DTD SVG 1.1//EN" "http://www.w3.org/Graphics/SVG/1.1/DTD/svg11.dtd">
<svg xmlns="http://www.w3.org/2000/svg" version="1.1" width="211px" height="239px" style="shape-rendering:geometricPrecision; text-rendering:geometricPrecision; image-rendering:optimizeQuality; fill-rule:evenodd; clip-rule:evenodd" xmlns:xlink="http://www.w3.org/1999/xlink">
<g><path style="opacity:1" fill="#fdfefd" d="M -0.5,-0.5 C 31.1667,-0.5 62.8333,-0.5 94.5,-0.5C 49.4481,8.14402 21.2814,34.8107 10,79.5C 8.89275,85.7869 8.39275,92.1202 8.5,98.5C 10.5643,98.687 12.5643,99.187 14.5,100C 30.4641,108.661 46.4641,117.328 62.5,126C 73.3594,133.027 82.3594,141.86 89.5,152.5C 91.8088,158.404 93.8088,164.404 95.5,170.5C 95.5031,179.276 95.0031,187.942 94,196.5C 101.413,197.481 108.913,197.814 116.5,197.5C 109.739,166.193 120.073,142.36 147.5,126C 160.527,119.154 173.527,112.321 186.5,105.5C 187.167,105.5 187.5,105.167 187.5,104.5C 188.609,104.443 189.609,104.11 190.5,103.5C 192.389,102.396 194.055,101.063 195.5,99.5C 198.721,98.4268 201.888,98.4268 205,99.5C 204.452,61.2299 187.952,32.0633 155.5,12C 143.122,5.49676 130.122,1.33009 116.5,-0.5C 147.833,-0.5 179.167,-0.5 210.5,-0.5C 210.5,79.1667 210.5,158.833 210.5,238.5C 183.167,238.5 155.833,238.5 128.5,238.5C 131.5,231.001 135.166,223.834 139.5,217C 197.142,212.607 219.309,182.107 206,125.5C 204.718,120.319 203.051,115.319 201,110.5C 182.268,119.78 164.101,129.946 146.5,141C 130.984,153.533 124.484,169.7 127,189.5C 128.776,198.104 130.943,206.604 133.5,215C 129.965,222.44 127.965,230.273 127.5,238.5C 112.5,238.5 97.5,238.5 82.5,238.5C 82.0354,230.273 80.0354,222.44 76.5,215C 81.3872,201.569 83.5539,187.735 83,173.5C 80.825,160.649 74.6583,150.149 64.5,142C 60.1667,139 55.8333,136 51.5,133C 37.2542,125.627 23.0875,118.127 9,110.5C 0.811405,129.788 -1.52193,149.788 2,170.5C 7.46443,193.298 21.6311,207.464 44.5,213C 53.0902,214.852 61.7569,216.185 70.5,217C 74.8313,223.829 78.4979,230.996 81.5,238.5C 54.1667,238.5 26.8333,238.5 -0.5,238.5C -0.5,158.833 -0.5,79.1667 -0.5,-0.5 Z"/></g>
<g><path style="opacity:1" fill="#2694df" d="M 94.5,-0.5 C 101.833,-0.5 109.167,-0.5 116.5,-0.5C 130.122,1.33009 143.122,5.49676 155.5,12C 187.952,32.0633 204.452,61.2299 205,99.5C 201.888,98.4268 198.721,98.4268 195.5,99.5C 194.812,96.2824 193.812,93.1157 192.5,90C 192.358,87.0878 193.691,85.5878 196.5,85.5C 191.322,52.8224 173.988,28.9891 144.5,14C 138.075,10.0947 131.408,9.59466 124.5,12.5C 122.944,11.4529 121.277,10.7863 119.5,10.5C 119.5,11.5 119.5,12.5 119.5,13.5C 117.007,13.3291 115.174,14.3291 114,16.5C 112.442,14.6411 110.609,13.1411 108.5,12C 117.443,13.2916 118.11,12.2916 110.5,9C 105.924,7.52357 101.257,7.19024 96.5,8C 91.0739,11.1288 85.9072,14.6288 81,18.5C 80.6753,20.5527 81.0087,22.5527 82,24.5C 83.7261,23.4238 85.5594,23.2571 87.5,24C 89.0298,28.0385 88.1964,28.5385 85,25.5C 83.9827,27.3759 83.1494,29.3759 82.5,31.5C 78.0332,34.0694 73.3665,36.0694 68.5,37.5C 69.9398,40.2161 71.2731,43.0495 72.5,46C 69.5184,46.498 66.5184,46.6646 63.5,46.5C 63.1774,50.226 63.5108,53.8927 64.5,57.5C 70.4648,59.8884 74.1315,57.8884 75.5,51.5C 77.9837,48.7559 80.9837,46.7559 84.5,45.5C 86.8167,48.3174 89.3167,50.9841 92,53.5C 92.3114,54.7425 91.8114,55.7425 90.5,56.5C 90.8076,57.3081 91.3076,57.9747 92,58.5C 94.19,56.2172 94.8567,53.5505 94,50.5C 91.3869,48.5985 89.7203,46.2652 89,43.5C 91.6667,45.5 94.3333,47.5 97,49.5C 98.1392,52.5833 99.4725,55.5833 101,58.5C 102.352,56.4062 102.852,54.0728 102.5,51.5C 103.822,51.33 104.989,51.6634 106,52.5C 106.931,54.4595 107.764,56.4595 108.5,58.5C 111.428,59.4841 114.428,59.8174 117.5,59.5C 118.604,67.5633 115.27,70.3967 107.5,68C 104.647,66.5699 101.647,65.7366 98.5,65.5C 98.762,66.9778 98.4287,68.3112 97.5,69.5C 94.6179,67.8921 91.6179,66.5587 88.5,65.5C 87.52,62.9135 87.1866,60.2469 87.5,57.5C 83.8183,57.3347 80.1516,57.5014 76.5,58C 73.8612,59.9464 70.8612,60.9464 67.5,61C 66,62.5 64.5,64 63,65.5C 62.6667,67.5 62.3333,69.5 62,71.5C 55.1955,76.2752 52.3621,82.7752 53.5,91C 52.7436,99.5867 55.7436,106.587 62.5,112C 67.4767,112.743 72.3101,112.243 77,110.5C 79.8329,111.497 82.6662,112.497 85.5,113.5C 84.5933,120.11 86.0933,126.11 90,131.5C 90.8183,136.65 90.3183,141.65 88.5,146.5C 88.8396,148.512 89.1729,150.512 89.5,152.5C 82.3594,141.86 73.3594,133.027 62.5,126C 46.4641,117.328 30.4641,108.661 14.5,100C 12.5643,99.187 10.5643,98.687 8.5,98.5C 8.39275,92.1202 8.89275,85.7869 10,79.5C 21.2814,34.8107 49.4481,8.14402 94.5,-0.5 Z"/></g>
<g><path style="opacity:1" fill="#a0e267" d="M 195.5,99.5 C 194.055,101.063 192.389,102.396 190.5,103.5C 188.147,99.1883 187.147,99.5216 187.5,104.5C 187.5,105.167 187.167,105.5 186.5,105.5C 185.979,101.519 185.646,97.5191 185.5,93.5C 184.178,93.67 183.011,93.3366 182,92.5C 181.265,90.1287 180.432,87.7954 179.5,85.5C 178.998,84.479 178.332,84.3123 177.5,85C 174.838,88.4954 171.838,91.6621 168.5,94.5C 167.833,97.8333 167.167,101.167 166.5,104.5C 165.914,104.709 165.414,105.043 165,105.5C 163.448,98.5497 161.781,91.5497 160,84.5C 159.282,85.4506 158.449,85.6172 157.5,85C 156.167,83.3333 154.833,81.6667 153.5,80C 148.077,79.6901 143.077,78.3568 138.5,76C 137.174,73.8416 135.507,72.0082 133.5,70.5C 133.167,70.8333 132.833,71.1667 132.5,71.5C 133.801,74.4271 134.801,77.4271 135.5,80.5C 137.821,80.7711 139.821,80.1045 141.5,78.5C 145.861,80.8418 146.694,84.1751 144,88.5C 139.849,93.9069 134.516,97.5736 128,99.5C 127.383,100.449 127.549,101.282 128.5,102C 130.847,102.334 133.181,102.167 135.5,101.5C 135.592,105.059 134.759,108.392 133,111.5C 129.333,116.833 125.667,122.167 122,127.5C 122.406,133.472 122.406,139.472 122,145.5C 119.372,147.126 117.039,149.126 115,151.5C 115.305,153.443 115.305,155.443 115,157.5C 112.504,160.938 110.004,164.438 107.5,168C 103.792,170.132 99.7924,170.965 95.5,170.5C 93.8088,164.404 91.8088,158.404 89.5,152.5C 89.1729,150.512 88.8396,148.512 88.5,146.5C 90.3183,141.65 90.8183,136.65 90,131.5C 86.0933,126.11 84.5933,120.11 85.5,113.5C 82.6662,112.497 79.8329,111.497 77,110.5C 72.3101,112.243 67.4767,112.743 62.5,112C 55.7436,106.587 52.7436,99.5867 53.5,91C 52.3621,82.7752 55.1955,76.2752 62,71.5C 62.3333,69.5 62.6667,67.5 63,65.5C 64.5,64 66,62.5 67.5,61C 70.8612,60.9464 73.8612,59.9464 76.5,58C 80.1516,57.5014 83.8183,57.3347 87.5,57.5C 87.1866,60.2469 87.52,62.9135 88.5,65.5C 91.6179,66.5587 94.6179,67.8921 97.5,69.5C 98.4287,68.3112 98.762,66.9778 98.5,65.5C 101.647,65.7366 104.647,66.5699 107.5,68C 115.27,70.3967 118.604,67.5633 117.5,59.5C 114.428,59.8174 111.428,59.4841 108.5,58.5C 107.764,56.4595 106.931,54.4595 106,52.5C 104.989,51.6634 103.822,51.33 102.5,51.5C 102.852,54.0728 102.352,56.4062 101,58.5C 99.4725,55.5833 98.1392,52.5833 97,49.5C 94.3333,47.5 91.6667,45.5 89,43.5C 89.7203,46.2652 91.3869,48.5985 94,50.5C 94.8567,53.5505 94.19,56.2172 92,58.5C 91.3076,57.9747 90.8076,57.3081 90.5,56.5C 91.8114,55.7425 92.3114,54.7425 92,53.5C 89.3167,50.9841 86.8167,48.3174 84.5,45.5C 80.9837,46.7559 77.9837,48.7559 75.5,51.5C 74.1315,57.8884 70.4648,59.8884 64.5,57.5C 63.5108,53.8927 63.1774,50.226 63.5,46.5C 66.5184,46.6646 69.5184,46.498 72.5,46C 71.2731,43.0495 69.9398,40.2161 68.5,37.5C 73.3665,36.0694 78.0332,34.0694 82.5,31.5C 83.1494,29.3759 83.9827,27.3759 85,25.5C 88.1964,28.5385 89.0298,28.0385 87.5,24C 85.5594,23.2571 83.7261,23.4238 82,24.5C 81.0087,22.5527 80.6753,20.5527 81,18.5C 85.9072,14.6288 91.0739,11.1288 96.5,8C 101.257,7.19024 105.924,7.52357 110.5,9C 118.11,12.2916 117.443,13.2916 108.5,12C 110.609,13.1411 112.442,14.6411 114,16.5C 115.174,14.3291 117.007,13.3291 119.5,13.5C 119.5,12.5 119.5,11.5 119.5,10.5C 121.277,10.7863 122.944,11.4529 124.5,12.5C 131.408,9.59466 138.075,10.0947 144.5,14C 173.988,28.9891 191.322,52.8224 196.5,85.5C 193.691,85.5878 192.358,87.0878 192.5,90C 193.812,93.1157 194.812,96.2824 195.5,99.5 Z"/></g>
<g><path style="opacity:1" fill="#2794df" d="M 186.5,105.5 C 173.527,112.321 160.527,119.154 147.5,126C 120.073,142.36 109.739,166.193 116.5,197.5C 108.913,197.814 101.413,197.481 94,196.5C 95.0031,187.942 95.5031,179.276 95.5,170.5C 99.7924,170.965 103.792,170.132 107.5,168C 110.004,164.438 112.504,160.938 115,157.5C 115.305,155.443 115.305,153.443 115,151.5C 117.039,149.126 119.372,147.126 122,145.5C 122.406,139.472 122.406,133.472 122,127.5C 125.667,122.167 129.333,116.833 133,111.5C 134.759,108.392 135.592,105.059 135.5,101.5C 133.181,102.167 130.847,102.334 128.5,102C 127.549,101.282 127.383,100.449 128,99.5C 134.516,97.5736 139.849,93.9069 144,88.5C 146.694,84.1751 145.861,80.8418 141.5,78.5C 139.821,80.1045 137.821,80.7711 135.5,80.5C 134.801,77.4271 133.801,74.4271 132.5,71.5C 132.833,71.1667 133.167,70.8333 133.5,70.5C 135.507,72.0082 137.174,73.8416 138.5,76C 143.077,78.3568 148.077,79.6901 153.5,80C 154.833,81.6667 156.167,83.3333 157.5,85C 158.449,85.6172 159.282,85.4506 160,84.5C 161.781,91.5497 163.448,98.5497 165,105.5C 165.414,105.043 165.914,104.709 166.5,104.5C 167.167,101.167 167.833,97.8333 168.5,94.5C 171.838,91.6621 174.838,88.4954 177.5,85C 178.332,84.3123 178.998,84.479 179.5,85.5C 180.432,87.7954 181.265,90.1287 182,92.5C 183.011,93.3366 184.178,93.67 185.5,93.5C 185.646,97.5191 185.979,101.519 186.5,105.5 Z"/></g>
<g><path style="opacity:1" fill="#3597e0" d="M 190.5,103.5 C 189.609,104.11 188.609,104.443 187.5,104.5C 187.147,99.5216 188.147,99.1883 190.5,103.5 Z"/></g>
<g><path style="opacity:1" fill="#89bf3f" d="M 82.5,238.5 C 82.1667,238.5 81.8333,238.5 81.5,238.5C 78.4979,230.996 74.8313,223.829 70.5,217C 61.7569,216.185 53.0902,214.852 44.5,213C 21.6311,207.464 7.46443,193.298 2,170.5C -1.52193,149.788 0.811405,129.788 9,110.5C 23.0875,118.127 37.2542,125.627 51.5,133C 55.8333,136 60.1667,139 64.5,142C 74.6583,150.149 80.825,160.649 83,173.5C 83.5539,187.735 81.3872,201.569 76.5,215C 80.0354,222.44 82.0354,230.273 82.5,238.5 Z"/></g>
<g><path style="opacity:1" fill="#88bf3f" d="M 128.5,238.5 C 128.167,238.5 127.833,238.5 127.5,238.5C 127.965,230.273 129.965,222.44 133.5,215C 130.943,206.604 128.776,198.104 127,189.5C 124.484,169.7 130.984,153.533 146.5,141C 164.101,129.946 182.268,119.78 201,110.5C 203.051,115.319 204.718,120.319 206,125.5C 219.309,182.107 197.142,212.607 139.5,217C 135.166,223.834 131.5,231.001 128.5,238.5 Z"/></g>
<g><path style="opacity:1" fill="#4ca71e" d="M 17.5,130.5 C 21.4173,136.265 25.584,141.932 30,147.5C 42.8402,159.537 53.5069,173.203 62,188.5C 63.8427,192.015 64.8427,195.682 65,199.5C 53.97,188.804 43.3033,177.804 33,166.5C 25.366,155.565 20.1993,143.565 17.5,130.5 Z"/></g>
<g><path style="opacity:1" fill="#4ca71e" d="M 191.5,131.5 C 189.584,144.046 184.751,155.713 177,166.5C 166.697,177.804 156.03,188.804 145,199.5C 144.516,197.087 144.85,194.754 146,192.5C 148.826,186.178 152.159,180.178 156,174.5C 164.96,162.937 174.627,151.937 185,141.5C 187.426,138.309 189.593,134.975 191.5,131.5 Z"/></g>
</svg>
